{"title":"Bridesmaids [2011] BRRip XviD - CODY","uid":7305605,"size":944845051,"categoryP":"video","categoryS":"movies","magnet":"?xt=urn:btih:3b16497273c5259be1a322e8ec0f7abcde919e14&amp;dn=Bridesmaids+%5B2011%5D+BRRip+XviD+-+CODY&amp;tr=udp%3A%2F%2Ftracker.openbittorrent.com%3A80&amp;tr=udp%3A%2F%2Fopen.demonii.com%3A1337&amp;tr=udp%3A%2F%2Ftracker.coppersurfer.tk%3A6969&amp;tr=udp%3A%2F%2Fexodus.desync.com%3A6969","seeders":2,"leechers":1,"uploader":"CODYBOSS1969","files":5,"time":1338186430,"description":"General\nComplete name                            : Bridesmaids [2011] BRRip XviD - CODY.avi\nFormat                                   : AVI\nFormat/Info                              : Audio Video Interleave\nFormat profile                           : OpenDML\nFormat settings                          : rec\nFile size                                : 901 MiB\nDuration                                 : 2h 10mn\nOverall bit rate                         : 966 Kbps\nWriting application                      : AVI-Mux GUI 1.17.8.3, Feb 16 201019:42:50\n\nVideo\nID                                       : 0\nFormat                                   : MPEG-4 Visual\nFormat profile                           : Advanced Simple@L5\nFormat settings, BVOP                    : 4\nFormat settings, QPel                    : No\nFormat settings, GMC                     : No warppoints\nFormat settings, Matrix                  : Default (H.263)\nCodec ID                                 : XVID\nCodec ID/Hint                            : XviD\nDuration                                 : 2h 10mn\nBit rate                                 : 830 Kbps\nWidth                                    : 720 pixels\nHeight                                   : 296 pixels\nDisplay aspect ratio                     : 2.40:1\nFrame rate                               : 23.976 fps\nColor space                              : YUV\nChroma subsampling                       : 4:2:0\nBit depth                                : 8 bits\nScan type                                : Progressive\nCompression mode                         : Lossy\nBits/(Pixel*Frame)                       : 0.162\nStream size                              : 773 MiB (86%)\nWriting library                          : XviD 1.2.1 (UTC 2008-12-04)\n\nAudio\nID                                       : 1\nFormat                                   : MPEG Audio\nCodec ID                                 : 55\nCodec ID/Hint                            : MP3\nDuration                                 : 2h 10mn\nBit rate                                 : 128 Kbps\nChannel(s)                               : 2 channels\nSampling rate                            : 48.0 KHz\nCompression mode                         : Lossy\nStream size                              : 119 MiB (13%)\nAlignment                                : Aligned on interleaves\nTitle                                    : Bridesmaids [2011] BRRIp XviD - CODY\n\n\n\nIMDB link:                                &lt;a href=&quot; http://www.imdb.com/title/tt1478338/&quot; rel=&quot;nofollow&quot; target=&quot;_NEW&quot;&gt; http://www.imdb.com/title/tt1478338/&lt;/a&gt;\n\n\nSubtitles included                       : Romanian\n\n\nPlease seed at least 1,5:1. This way this torrent has a chance to survive !\n\n\nThanks . Enjoy !!","torrent":{"xt":"urn:btih:3b16497273c5259be1a322e8ec0f7abcde919e14","amp;dn":"Bridesmaids+%5B2011%5D+BRRip+XviD+-+CODY","amp;tr":["udp%3A%2F%2Ftracker.openbittorrent.com%3A80","udp%3A%2F%2Fopen.demonii.com%3A1337","udp%3A%2F%2Ftracker.coppersurfer.tk%3A6969","udp%3A%2F%2Fexodus.desync.com%3A6969"],"infoHash":"3b16497273c5259be1a322e8ec0f7abcde919e14","infoHashBuffer":{"type":"Buffer","data":[59,22,73,114,115,197,37,155,225,163,34,232,236,15,122,188,222,145,158,20]},"announce":[],"urlList":[]}}